<svg xmlns="http://www.w3.org/2000/svg" xmlns:xlink="http://www.w3.org/1999/xlink" viewBox="0 0 200 201.4"><defs><style>.cls-1{isolation:isolate;}.cls-2{opacity:0.3;fill:url(#linear-gradient);}.cls-3{fill:url(#linear-gradient-2);}.cls-4,.cls-45,.cls-8,.cls-9{fill:#fff;}.cls-4{mix-blend-mode:soft-light;}.cls-5{fill:url(#linear-gradient-3);}.cls-6{fill:url(#linear-gradient-4);}.cls-7{fill:url(#linear-gradient-5);}.cls-8{opacity:0.5;}.cls-10{fill:url(#linear-gradient-6);}.cls-11{fill:url(#linear-gradient-7);}.cls-12{fill:url(#linear-gradient-8);}.cls-13{fill:url(#linear-gradient-9);}.cls-14{fill:url(#linear-gradient-10);}.cls-15{fill:url(#linear-gradient-11);}.cls-16{fill:url(#linear-gradient-12);}.cls-17{fill:url(#linear-gradient-13);}.cls-18{fill:url(#linear-gradient-14);}.cls-19{fill:url(#linear-gradient-15);}.cls-20{fill:url(#linear-gradient-16);}.cls-21{fill:url(#linear-gradient-17);}.cls-22{fill:url(#linear-gradient-18);}.cls-23{fill:url(#linear-gradient-19);}.cls-24{fill:url(#linear-gradient-20);}.cls-25{fill:url(#linear-gradient-21);}.cls-26{fill:url(#linear-gradient-22);}.cls-27{fill:url(#linear-gradient-23);}.cls-28{fill:url(#linear-gradient-24);}.cls-29{fill:url(#linear-gradient-25);}.cls-30{fill:url(#linear-gradient-26);}.cls-31{fill:url(#linear-gradient-27);}.cls-32{fill:url(#linear-gradient-28);}.cls-33{fill:url(#linear-gradient-29);}.cls-34{fill:url(#linear-gradient-30);}.cls-35{fill:url(#linear-gradient-31);}.cls-36{fill:url(#linear-gradient-32);}.cls-37{fill:url(#linear-gradient-33);}.cls-38{fill:url(#linear-gradient-34);}.cls-39{fill:url(#linear-gradient-35);}.cls-40{fill:url(#linear-gradient-36);}.cls-41{fill:url(#linear-gradient-37);}.cls-42{fill:url(#linear-gradient-38);}.cls-43{fill:url(#linear-gradient-39);}.cls-44{fill:url(#linear-gradient-40);}.cls-45{opacity:0.78;}.cls-46{fill:url(#linear-gradient-41);}.cls-47{fill:url(#linear-gradient-42);}.cls-48{fill:url(#linear-gradient-43);}.cls-49{fill:url(#linear-gradient-44);}.cls-50{fill:url(#linear-gradient-45);}.cls-51{fill:url(#linear-gradient-46);}.cls-52{fill:url(#linear-gradient-47);}.cls-53{fill:url(#linear-gradient-48);}.cls-54{fill:url(#linear-gradient-49);}.cls-55{fill:url(#linear-gradient-50);}.cls-56{fill:url(#linear-gradient-51);}.cls-57{fill:url(#linear-gradient-52);}.cls-58{fill:url(#linear-gradient-53);}.cls-59{fill:url(#linear-gradient-54);}.cls-60{fill:url(#linear-gradient-55);}.cls-61{fill:url(#linear-gradient-56);}.cls-62{fill:url(#linear-gradient-57);}.cls-63{fill:url(#linear-gradient-58);}.cls-64{fill:url(#linear-gradient-59);}.cls-65{fill:url(#linear-gradient-60);}.cls-66{fill:url(#linear-gradient-61);}.cls-67{fill:url(#linear-gradient-62);}.cls-68{fill:url(#linear-gradient-63);}.cls-69{fill:url(#linear-gradient-64);}.cls-70{fill:url(#linear-gradient-65);}.cls-71{fill:url(#linear-gradient-66);}.cls-72{fill:url(#linear-gradient-67);}.cls-73{fill:url(#linear-gradient-68);}.cls-74{fill:url(#linear-gradient-69);}.cls-75{fill:url(#linear-gradient-70);}.cls-76{fill:url(#linear-gradient-71);}.cls-77{fill:url(#linear-gradient-72);}.cls-78{fill:url(#linear-gradient-73);}.cls-79{fill:url(#linear-gradient-74);}.cls-80{fill:url(#linear-gradient-75);}.cls-81{fill:url(#linear-gradient-76);}.cls-82{fill:url(#linear-gradient-77);}.cls-83{fill:url(#linear-gradient-78);}.cls-84{fill:url(#linear-gradient-79);}.cls-85{fill:url(#linear-gradient-80);}.cls-86{fill:url(#linear-gradient-81);}.cls-87{fill:url(#linear-gradient-82);}.cls-88{fill:url(#linear-gradient-83);}.cls-89{fill:url(#linear-gradient-84);}.cls-90{fill:url(#linear-gradient-85);}.cls-91{fill:url(#linear-gradient-86);}.cls-92{fill:url(#linear-gradient-87);}.cls-93{fill:url(#linear-gradient-88);}.cls-94{fill:url(#linear-gradient-89);}.cls-95{fill:url(#linear-gradient-90);}.cls-96{fill:url(#linear-gradient-91);}.cls-97{fill:url(#linear-gradient-92);}</style><linearGradient id="linear-gradient" x1="225.99" y1="260.23" x2="47.21" y2="38.19" gradientUnits="userSpaceOnUse"><stop offset="0" stop-color="#b37cff"/><stop offset="1" stop-color="#f895e7"/></linearGradient><linearGradient id="linear-gradient-2" x1="6165.11" y1="96.33" x2="6261.32" y2="96.33" gradientTransform="translate(-6143.58 -489.34) rotate(4.35)" gradientUnits="userSpaceOnUse"><stop offset="0" stop-color="#a737d5"/><stop offset="1" stop-color="#ef497a"/></linearGradient><linearGradient id="linear-gradient-3" x1="-3490.99" y1="3367.52" x2="-3397.87" y2="3367.52" gradientTransform="translate(-2255.38 -4169.91) rotate(-74.2)" gradientUnits="userSpaceOnUse"><stop offset="0" stop-color="#ce1567"/><stop offset="1" stop-color="#7a1dbc"/></linearGradient><linearGradient id="linear-gradient-4" x1="49.87" y1="100.75" x2="172.35" y2="100.75" gradientUnits="userSpaceOnUse"><stop offset="0" stop-color="#2b3582"/><stop offset="1" stop-color="#150e42"/></linearGradient><linearGradient id="linear-gradient-5" x1="142.72" y1="52.06" x2="-109.52" y2="374.75" gradientUnits="userSpaceOnUse"><stop offset="0" stop-color="#53d8ff"/><stop offset="1" stop-color="#3840f7"/></linearGradient><linearGradient id="linear-gradient-6" x1="-2121.26" y1="-59.79" x2="-2141.87" y2="-29.28" gradientTransform="matrix(-1, -0.03, -0.03, 1, -2051.92, 32.84)" xlink:href="#linear-gradient-5"/><linearGradient id="linear-gradient-7" x1="157.47" y1="-41.86" x2="153.24" y2="27.31" gradientTransform="translate(-37.02 93.39) rotate(1.72)" xlink:href="#linear-gradient-5"/><linearGradient id="linear-gradient-8" x1="145.13" y1="-36.35" x2="141.96" y2="15.57" gradientTransform="translate(-37.02 93.39) rotate(1.72)" xlink:href="#linear-gradient-5"/><linearGradient id="linear-gradient-9" x1="174.01" y1="-36.47" x2="171.13" y2="10.61" gradientTransform="translate(-37.02 93.39) rotate(1.72)" xlink:href="#linear-gradient-5"/><linearGradient id="linear-gradient-10" x1="97.25" y1="46.62" x2="157.62" y2="88.62" gradientUnits="userSpaceOnUse"><stop offset="0" stop-color="#fdf53f"/><stop offset="1" stop-color="#d93c65"/></linearGradient><linearGradient id="linear-gradient-11" x1="101.1" y1="41.09" x2="161.47" y2="83.09" xlink:href="#linear-gradient-10"/><linearGradient id="linear-gradient-12" x1="104.95" y1="35.55" x2="165.32" y2="77.55" xlink:href="#linear-gradient-10"/><linearGradient id="linear-gradient-13" x1="167.74" y1="-48.4" x2="171.09" y2="-56.68" gradientTransform="translate(-37.02 93.39) rotate(1.72)" xlink:href="#linear-gradient-5"/><linearGradient id="linear-gradient-14" x1="180.08" y1="-48.4" x2="183.43" y2="-56.68" gradientTransform="translate(-37.02 93.39) rotate(1.72)" xlink:href="#linear-gradient-5"/><linearGradient id="linear-gradient-15" x1="-2121.26" y1="-18.93" x2="-2141.87" y2="11.58" gradientTransform="matrix(-1, -0.03, -0.03, 1, -2051.92, 32.84)" xlink:href="#linear-gradient-5"/><linearGradient id="linear-gradient-16" x1="-1431.55" y1="-0.92" x2="-1435.78" y2="68.25" gradientTransform="matrix(-1, -0.03, -0.03, 1, -1310.25, 55.1)" xlink:href="#linear-gradient-5"/><linearGradient id="linear-gradient-17" x1="-1444.01" y1="4.83" x2="-1447.18" y2="56.74" gradientTransform="matrix(-1, -0.03, -0.03, 1, -1310.25, 55.1)" xlink:href="#linear-gradient-5"/><linearGradient id="linear-gradient-18" x1="-1415.13" y1="4.71" x2="-1418.01" y2="51.79" gradientTransform="matrix(-1, -0.03, -0.03, 1, -1310.25, 55.1)" xlink:href="#linear-gradient-5"/><linearGradient id="linear-gradient-19" x1="132.99" y1="-10.14" x2="262.72" y2="50.6" gradientTransform="translate(-37.02 93.39) rotate(1.72)" xlink:href="#linear-gradient-10"/><linearGradient id="linear-gradient-20" x1="135.21" y1="-14.88" x2="264.94" y2="45.86" gradientTransform="translate(-37.02 93.39) rotate(1.72)" xlink:href="#linear-gradient-10"/><linearGradient id="linear-gradient-21" x1="137.43" y1="-19.62" x2="267.15" y2="41.12" gradientTransform="translate(-37.02 93.39) rotate(1.72)" xlink:href="#linear-gradient-10"/><linearGradient id="linear-gradient-22" x1="139.64" y1="-24.36" x2="269.37" y2="36.38" gradientTransform="translate(-37.02 93.39) rotate(1.72)" xlink:href="#linear-gradient-10"/><linearGradient id="linear-gradient-23" x1="141.86" y1="-29.1" x2="271.59" y2="31.64" gradientTransform="translate(-37.02 93.39) rotate(1.72)" xlink:href="#linear-gradient-10"/><linearGradient id="linear-gradient-24" x1="-2121.26" y1="21.82" x2="-2141.87" y2="52.33" gradientTransform="matrix(0, -1, -1, 0, 112.28, -1998.33)" xlink:href="#linear-gradient-5"/><linearGradient id="linear-gradient-25" x1="157.47" y1="39.75" x2="153.24" y2="108.93" gradientTransform="translate(-37.02 93.39) rotate(1.72)" xlink:href="#linear-gradient-5"/><linearGradient id="linear-gradient-26" x1="145.13" y1="45.33" x2="141.96" y2="97.25" gradientTransform="translate(-37.02 93.39) rotate(1.72)" xlink:href="#linear-gradient-5"/><linearGradient id="linear-gradient-27" x1="174.01" y1="45.21" x2="171.13" y2="92.29" gradientTransform="translate(-37.02 93.39) rotate(1.72)" xlink:href="#linear-gradient-5"/><linearGradient id="linear-gradient-28" x1="85.34" y1="121.53" x2="148.7" y2="166.34" xlink:href="#linear-gradient-10"/><linearGradient id="linear-gradient-29" x1="143.06" y1="33.21" x2="146.41" y2="24.93" gradientTransform="translate(-37.02 93.39) rotate(1.72)" xlink:href="#linear-gradient-5"/><linearGradient id="linear-gradient-30" x1="155.4" y1="33.21" x2="158.75" y2="24.93" gradientTransform="translate(-37.02 93.39) rotate(1.72)" xlink:href="#linear-gradient-5"/><linearGradient id="linear-gradient-31" x1="167.74" y1="33.21" x2="171.09" y2="24.93" gradientTransform="translate(-37.02 93.39) rotate(1.72)" xlink:href="#linear-gradient-5"/><linearGradient id="linear-gradient-32" x1="180.08" y1="33.21" x2="183.43" y2="24.93" gradientTransform="translate(-37.02 93.39) rotate(1.72)" xlink:href="#linear-gradient-5"/><linearGradient id="linear-gradient-33" x1="167.52" y1="104.5" x2="144.14" y2="161.13" gradientUnits="userSpaceOnUse"><stop offset="0" stop-color="#cb236d"/><stop offset="1" stop-color="#4c246d"/></linearGradient><linearGradient id="linear-gradient-34" x1="162.51" y1="155.86" x2="96.77" y2="233.59" xlink:href="#linear-gradient-33"/><linearGradient id="linear-gradient-35" x1="157.31" y1="181.3" x2="192.16" y2="156.22" xlink:href="#linear-gradient-33"/><linearGradient id="linear-gradient-36" x1="151.32" y1="121.54" x2="128.07" y2="190.19" xlink:href="#linear-gradient-33"/><linearGradient id="linear-gradient-37" x1="168.08" y1="164.93" x2="187.6" y2="164.93" gradientTransform="matrix(1, 0, 0, 1, 0, 0)" xlink:href="#linear-gradient-2"/><linearGradient id="linear-gradient-38" x1="192.18" y1="167.79" x2="150.32" y2="212.93" xlink:href="#linear-gradient-10"/><linearGradient id="linear-gradient-39" x1="214.66" y1="164.62" x2="167.46" y2="207.3" xlink:href="#linear-gradient-10"/><linearGradient id="linear-gradient-40" x1="-1249.17" y1="141.34" x2="-1234.96" y2="151.38" gradientTransform="translate(1335.62 657.19) rotate(28.57)" xlink:href="#linear-gradient-5"/><linearGradient id="linear-gradient-41" x1="-1250.18" y1="155.05" x2="-1244.98" y2="149.02" gradientTransform="translate(1335.62 657.19) rotate(28.57)" xlink:href="#linear-gradient-10"/><linearGradient id="linear-gradient-42" x1="-1242.05" y1="144.62" x2="-1257.41" y2="167.83" gradientTransform="translate(1335.62 657.19) rotate(28.57)" xlink:href="#linear-gradient-10"/><linearGradient id="linear-gradient-43" x1="-1242.5" y1="145.28" x2="-1250.69" y2="159.02" gradientTransform="translate(1335.62 657.19) rotate(28.57)" xlink:href="#linear-gradient-10"/><linearGradient id="linear-gradient-44" x1="-1245.96" y1="124.03" x2="-1240.06" y2="146.03" gradientTransform="translate(1335.62 657.19) rotate(28.57)" xlink:href="#linear-gradient-33"/><linearGradient id="linear-gradient-45" x1="162.4" y1="164.82" x2="181.92" y2="164.82" gradientTransform="matrix(1, 0, 0, 1, 0, 0)" xlink:href="#linear-gradient-2"/><linearGradient id="linear-gradient-46" x1="6638.1" y1="191.36" x2="6599.29" y2="233.57" gradientTransform="translate(-6594.7)" xlink:href="#linear-gradient-4"/><linearGradient id="linear-gradient-47" x1="6625.5" y1="194.49" x2="6628.95" y2="194.49" gradientTransform="translate(-6594.7)" gradientUnits="userSpaceOnUse"><stop offset="0" stop-color="#f9b776"/><stop offset="1" stop-color="#f47960"/></linearGradient><linearGradient id="linear-gradient-48" x1="6619.26" y1="191.43" x2="6626.87" y2="147.17" gradientTransform="translate(-6594.7)" xlink:href="#linear-gradient-4"/><linearGradient id="linear-gradient-49" x1="6629.39" y1="183.35" x2="6590.58" y2="225.57" gradientTransform="translate(-6594.7)" xlink:href="#linear-gradient-4"/><linearGradient id="linear-gradient-50" x1="6613.08" y1="194.31" x2="6616.05" y2="194.31" xlink:href="#linear-gradient-47"/><linearGradient id="linear-gradient-51" x1="6610.64" y1="189.94" x2="6618.26" y2="145.69" gradientTransform="translate(-6594.7)" xlink:href="#linear-gradient-4"/><linearGradient id="linear-gradient-52" x1="39.89" y1="107.19" x2="5.75" y2="149.69" xlink:href="#linear-gradient-5"/><linearGradient id="linear-gradient-53" x1="6639.69" y1="104.55" x2="6657.3" y2="104.55" xlink:href="#linear-gradient-47"/><linearGradient id="linear-gradient-54" x1="284.4" y1="101.6" x2="296.22" y2="128.49" gradientTransform="matrix(-1, 0, 0, 1, 343.08, 0)" xlink:href="#linear-gradient-47"/><linearGradient id="linear-gradient-55" x1="6657.21" y1="92.65" x2="6662.15" y2="85.07" xlink:href="#linear-gradient-47"/><linearGradient id="linear-gradient-56" x1="30.17" y1="99.38" x2="-3.97" y2="141.88" xlink:href="#linear-gradient-5"/><linearGradient id="linear-gradient-57" x1="6618.26" y1="105.67" x2="6627.07" y2="105.67" xlink:href="#linear-gradient-47"/><linearGradient id="linear-gradient-58" x1="-1094.27" y1="2397.87" x2="-1097.56" y2="2387.01" gradientTransform="matrix(0.75, -0.67, 0.67, 0.75, -745.94, -2417.42)" xlink:href="#linear-gradient-47"/><linearGradient id="linear-gradient-59" x1="-499.95" y1="1709.15" x2="-472.88" y2="1678.24" gradientTransform="matrix(0.75, -0.67, 0.67, 0.75, -745.94, -2417.42)" xlink:href="#linear-gradient-4"/><linearGradient id="linear-gradient-60" x1="-1097.64" y1="2397.82" x2="-1100.6" y2="2388.05" gradientTransform="matrix(0.75, -0.67, 0.67, 0.75, -745.94, -2417.42)" xlink:href="#linear-gradient-47"/><linearGradient id="linear-gradient-61" x1="6637.37" y1="197.86" x2="6639.22" y2="146.03" gradientTransform="translate(-6594.7)" gradientUnits="userSpaceOnUse"><stop offset="0" stop-color="#9cfffb"/><stop offset="1" stop-color="#9bfffa"/></linearGradient><linearGradient id="linear-gradient-62" x1="6652.55" y1="198.4" x2="6654.4" y2="146.58" xlink:href="#linear-gradient-61"/><linearGradient id="linear-gradient-63" x1="6639.19" y1="197.93" x2="6641.04" y2="146.1" xlink:href="#linear-gradient-61"/><linearGradient id="linear-gradient-64" x1="6637.81" y1="198.09" x2="6644.41" y2="198.09" gradientTransform="translate(-745.2 -6398.64) rotate(81.45)" xlink:href="#linear-gradient-5"/><linearGradient id="linear-gradient-65" x1="6638.63" y1="198.09" x2="6643.4" y2="198.09" gradientTransform="translate(-6594.7)" xlink:href="#linear-gradient-4"/><linearGradient id="linear-gradient-66" x1="6662.79" y1="198.09" x2="6669.39" y2="198.09" gradientTransform="translate(-1267.37 -6335.19) rotate(76.72)" xlink:href="#linear-gradient-5"/><linearGradient id="linear-gradient-67" x1="6663.62" y1="198.09" x2="6668.39" y2="198.09" gradientTransform="translate(-6594.7)" xlink:href="#linear-gradient-4"/><linearGradient id="linear-gradient-68" x1="6644.86" y1="198.13" x2="6646.71" y2="146.3" xlink:href="#linear-gradient-61"/><linearGradient id="linear-gradient-69" x1="6651.51" y1="198.37" x2="6653.36" y2="146.54" xlink:href="#linear-gradient-61"/><linearGradient id="linear-gradient-70" x1="6659.13" y1="198.64" x2="6660.98" y2="146.81" xlink:href="#linear-gradient-61"/><linearGradient id="linear-gradient-71" x1="6666.02" y1="198.88" x2="6667.87" y2="147.06" xlink:href="#linear-gradient-61"/><linearGradient id="linear-gradient-72" x1="6652.46" y1="198.4" x2="6654.31" y2="146.57" xlink:href="#linear-gradient-61"/><linearGradient id="linear-gradient-73" x1="6652.34" y1="198.4" x2="6654.19" y2="146.57" xlink:href="#linear-gradient-61"/><linearGradient id="linear-gradient-74" x1="6651.95" y1="198.38" x2="6653.8" y2="146.55" xlink:href="#linear-gradient-61"/><linearGradient id="linear-gradient-75" x1="6619.34" y1="141.96" x2="6601.2" y2="127.45" xlink:href="#linear-gradient-47"/><linearGradient id="linear-gradient-76" x1="6618.75" y1="142.7" x2="6600.61" y2="128.18" xlink:href="#linear-gradient-47"/><linearGradient id="linear-gradient-77" x1="50.4" y1="22.79" x2="181.52" y2="-90.53" xlink:href="#linear-gradient-5"/><linearGradient id="linear-gradient-78" x1="71.65" y1="16.72" x2="72.58" y2="50.94" xlink:href="#linear-gradient-33"/><linearGradient id="linear-gradient-79" x1="63.66" y1="38.14" x2="194.78" y2="-75.19" xlink:href="#linear-gradient-5"/><linearGradient id="linear-gradient-80" x1="102.6" y1="16.73" x2="103.54" y2="51.24" xlink:href="#linear-gradient-33"/><linearGradient id="linear-gradient-81" x1="76.89" y1="53.45" x2="208.02" y2="-59.88" xlink:href="#linear-gradient-5"/><linearGradient id="linear-gradient-82" x1="135.86" y1="16.67" x2="136.81" y2="51.48" xlink:href="#linear-gradient-33"/><linearGradient id="linear-gradient-83" x1="133.08" y1="45.54" x2="184.66" y2="-38.37" xlink:href="#linear-gradient-5"/><linearGradient id="linear-gradient-84" x1="166.81" y1="16.53" x2="167.77" y2="51.45" xlink:href="#linear-gradient-33"/><linearGradient id="linear-gradient-85" x1="82.91" y1="-45.85" x2="33.15" y2="71.1" xlink:href="#linear-gradient-5"/><linearGradient id="linear-gradient-86" x1="84.11" y1="-60.33" x2="55.72" y2="94.52" xlink:href="#linear-gradient-33"/><linearGradient id="linear-gradient-87" x1="113" y1="-33.05" x2="63.24" y2="83.9" xlink:href="#linear-gradient-5"/><linearGradient id="linear-gradient-88" x1="118.48" y1="-54.03" x2="90.09" y2="100.82" xlink:href="#linear-gradient-33"/><linearGradient id="linear-gradient-89" x1="143.09" y1="-20.25" x2="93.33" y2="96.71" xlink:href="#linear-gradient-5"/><linearGradient id="linear-gradient-90" x1="152.85" y1="-47.73" x2="124.46" y2="107.12" xlink:href="#linear-gradient-33"/><linearGradient id="linear-gradient-91" x1="181.63" y1="-26.77" x2="131.87" y2="90.19" xlink:href="#linear-gradient-5"/><linearGradient id="linear-gradient-92" x1="187.35" y1="-41.4" x2="158.96" y2="113.45" xlink:href="#linear-gradient-33"/></defs><g class="cls-1"><g id="Livello_2" data-name="Livello 2"><g id="Illustration"><path class="cls-2" d="M176.81,172.66A72.58,72.58,0,0,1,165.75,182c-36.09,25.89-78.79,18.34-87.87,16.5-13.4-2.72-39.3-8-58-30C-8.48,135.15-4.07,82.66,17.91,48c4-6.33,25.25-41.52,68.41-47.16,26.12-3.41,56.57,3.48,78.62,22C211.22,61.56,207.93,139.9,176.81,172.66Z"/><path class="cls-3" d="M.73,18.82c-.54-.89.6-2,1.65-1.58C13.05,21.32,40,35.16,46.67,72.59,55,119.55,71.22,132.38,88,138c0,0-20,1.36-37.13-11.45C8.89,95.07,10.36,34.63.73,18.82Z"/><path class="cls-4" d="M11.73,30.74c2.69,4.65,5.27,9.35,7.65,14.15S24,54.53,26.07,59.46s3.95,9.91,5.62,15,3.15,10.18,4.58,15.33a143.15,143.15,0,0,0,5,15.37,47.91,47.91,0,0,0,8.57,14c.93,1,1.89,2.06,2.91,3s2.06,1.91,3.14,2.83a58.27,58.27,0,0,0,6.93,5,63.64,63.64,0,0,0,16.2,6.9,1.34,1.34,0,0,0,1.54-.71,1,1,0,0,0-.63-1.3h0c-1.39-.42-2.77-.86-4.11-1.35-.68-.23-1.34-.5-2-.75s-1.32-.52-2-.82a58.15,58.15,0,0,1-7.43-3.89,57.46,57.46,0,0,1-12.48-10.46,46.83,46.83,0,0,1-4.72-6.37,51.74,51.74,0,0,1-3.58-7,142.44,142.44,0,0,1-5-15.12C37.05,84,35.49,78.81,33.69,73.75c-.9-2.53-1.84-5-2.84-7.54-.49-1.25-1-2.49-1.53-3.73S28.25,60,27.7,58.79c-2.21-4.89-4.59-9.72-7.15-14.45S15.23,35,12.3,30.43a.32.32,0,0,0-.43-.07A.29.29,0,0,0,11.73,30.74Z"/><path class="cls-5" d="M60.62,111.65a2.25,2.25,0,0,1-3.63.88A68.71,68.71,0,0,1,35.21,57.68C36.65,32,35,17.9,33.79,11.56a1.41,1.41,0,0,1,2.35-1.29C47.17,20.5,80.43,57.14,60.62,111.65Z"/><path class="cls-4" d="M58.46,111.66l-.11.06a.63.63,0,0,1-.82-.34C57.38,111,42.6,74.81,43,39a.64.64,0,0,1,.63-.62.63.63,0,0,1,.62.64c-.38,35.56,14.31,71.54,14.46,71.9A.64.64,0,0,1,58.46,111.66Z"/><path class="cls-6" d="M51.88,15c-.65,30.43-2.74,135.39-1.74,172.58.11,3.94,2.81,7.11,6.17,7.24,16.66.63,77.73,2.25,105,.91,5.68-.28,10.19-5.65,10.31-12.3.56-31.94,1.81-121.77-1.16-162.92-.35-4.93-3.66-8.86-7.87-9.35C144.43,9,83.1,3.84,59.56,5.62,55.31,6,52,10,51.88,15Z"/><path class="cls-7" d="M59.31,24.33c-.9,24.56-3.72,106.26-2.83,136.48.13,4.41,3.11,8,6.88,8.24,15.53,1.07,68.49,3.41,91.27,1.28,4.1-.39,7.31-4.27,7.54-9.07,1.15-25.06,4.46-101.14,3.6-131-.13-4.76-3.29-8.65-7.35-9.08-16.8-1.76-73.08-6-92.43-4.73C62.36,16.67,59.47,20.07,59.31,24.33Z"/><path class="cls-8" d="M93.05,10.94h0a1.64,1.64,0,0,0,1.42,1.75c3.93.25,15,.93,20,1.26A1.68,1.68,0,0,0,116,11.87l0-.19a1.62,1.62,0,0,0-1.34-1.42c-3.35-.36-13.45-1.35-20.14-1.07A1.64,1.64,0,0,0,93.05,10.94Z"/><path class="cls-9" d="M160,42.73l-.63,20.69c-.05,1.68-1.11,3-2.38,3L81.58,64.14a2.53,2.53,0,0,0-2.3,2.24l-1.57,7.17c-.21,1-1.21,1-1.44.07l-1.56-6.14a2.44,2.44,0,0,0-2.09-2l-3.24-.1c-1.27,0-2.25-1.43-2.2-3.12L67.82,41c.05-1.68,1.1-3,2.36-3l87.56,1.62C159,39.63,160,41,160,42.73Z"/><path class="cls-10" d="M70,50.51a9.25,9.25,0,1,0,9.53-9.21A9.38,9.38,0,0,0,70,50.51Z"/><path class="cls-9" d="M82.66,47c0,1.71-1.49,3.5-3.19,3.45s-3-1.93-3-3.63a3.09,3.09,0,0,1,6.17.18Z"/><path class="cls-9" d="M75.44,56.94l7.54.23A1.82,1.82,0,0,0,84.75,56l.44-1.25a1.81,1.81,0,0,0-1-2.3,14,14,0,0,0-9.49-.18,1.82,1.82,0,0,0-1.23,2.16l.28,1.16A1.82,1.82,0,0,0,75.44,56.94Z"/><path class="cls-11" d="M150,55.39a1.8,1.8,0,0,1-1.85,1.74L95.36,55.55a1.8,1.8,0,0,1-1.74-1.85h0A1.79,1.79,0,0,1,95.46,52l52.79,1.58A1.8,1.8,0,0,1,150,55.39Z"/><path class="cls-12" d="M125.13,60.59a1.69,1.69,0,0,1-1.74,1.64L95,61.38a1.7,1.7,0,0,1-1.64-1.74h0A1.7,1.7,0,0,1,95.15,58l28.34.85a1.7,1.7,0,0,1,1.64,1.74Z"/><path class="cls-13" d="M150.09,61.34A1.69,1.69,0,0,1,148.35,63l-20.54-.62a1.68,1.68,0,0,1-1.64-1.74h0A1.69,1.69,0,0,1,127.91,59l20.54.62a1.69,1.69,0,0,1,1.64,1.74Z"/><path class="cls-14" d="M101.34,44.88a.33.33,0,0,0,.1-.35.36.36,0,0,0-.27-.25l-2.75-.48-1.16-2.54a.33.33,0,0,0-.3-.2.35.35,0,0,0-.32.19l-1.22,2.3a.39.39,0,0,1-.27.18L92.56,44a.38.38,0,0,0-.29.23.36.36,0,0,0,.08.36l1.81,1.88a.34.34,0,0,1,.09.31l-.52,2.55a.36.36,0,0,0,.13.34.36.36,0,0,0,.37,0l2.34-1.14a.33.33,0,0,1,.32,0l2.27,1.28a.35.35,0,0,0,.52-.35L99.31,47a.39.39,0,0,1,.11-.31Z"/><path class="cls-15" d="M113.68,45.25a.36.36,0,0,0-.18-.6l-2.74-.48-1.16-2.54a.35.35,0,0,0-.63,0l-1.22,2.3a.35.35,0,0,1-.27.18l-2.58.29a.37.37,0,0,0-.29.23.32.32,0,0,0,.08.36l1.81,1.88a.34.34,0,0,1,.09.31l-.52,2.55a.33.33,0,0,0,.13.34.34.34,0,0,0,.36,0L108.9,49a.35.35,0,0,1,.33,0l2.27,1.28a.34.34,0,0,0,.36,0,.33.33,0,0,0,.15-.33l-.36-2.58a.33.33,0,0,1,.11-.31Z"/><path class="cls-16" d="M126,45.62a.33.33,0,0,0,.1-.35.36.36,0,0,0-.27-.25l-2.75-.48L121.93,42a.34.34,0,0,0-.3-.2.36.36,0,0,0-.32.19l-1.22,2.3a.39.39,0,0,1-.27.18l-2.59.3a.35.35,0,0,0-.29.22.36.36,0,0,0,.08.36l1.81,1.88a.32.32,0,0,1,.09.31l-.51,2.55a.34.34,0,0,0,.12.34.36.36,0,0,0,.37,0l2.34-1.14a.33.33,0,0,1,.32,0l2.27,1.28a.35.35,0,0,0,.37,0,.33.33,0,0,0,.15-.33L124,47.69a.39.39,0,0,1,.11-.31Z"/><path class="cls-17" d="M138.35,46a.35.35,0,0,0,.1-.35.37.37,0,0,0-.28-.25l-2.74-.48-1.16-2.54a.36.36,0,0,0-.31-.2.34.34,0,0,0-.31.19l-1.23,2.3a.33.33,0,0,1-.26.18l-2.59.3a.35.35,0,0,0-.29.22.36.36,0,0,0,.08.36l1.81,1.88a.34.34,0,0,1,.09.31l-.52,2.55a.34.34,0,0,0,.13.34.34.34,0,0,0,.36,0l2.35-1.14a.33.33,0,0,1,.32,0L136.17,51a.34.34,0,0,0,.36,0,.33.33,0,0,0,.15-.33l-.36-2.58a.34.34,0,0,1,.11-.31Z"/><path class="cls-18" d="M150.68,46.36a.33.33,0,0,0,.1-.35.36.36,0,0,0-.27-.25l-2.75-.48-1.15-2.54a.37.37,0,0,0-.31-.2.36.36,0,0,0-.32.19L144.76,45a.33.33,0,0,1-.27.18l-2.59.3a.32.32,0,0,0-.28.22.34.34,0,0,0,.07.36L143.5,48a.32.32,0,0,1,.09.31l-.51,2.55a.33.33,0,0,0,.13.34.34.34,0,0,0,.36,0l2.34-1.14a.33.33,0,0,1,.32,0l2.27,1.28a.35.35,0,0,0,.37,0A.33.33,0,0,0,149,51l-.36-2.58a.36.36,0,0,1,.1-.31Z"/><path class="cls-9" d="M158.74,83.57l-.62,20.69c-.05,1.69-1.12,3-2.39,3L80.35,105a2.53,2.53,0,0,0-2.29,2.25l-1.57,7.16c-.21,1-1.21,1-1.45.07l-1.56-6.13a2.42,2.42,0,0,0-2.08-2l-3.24-.09c-1.27,0-2.26-1.44-2.21-3.12l.64-21.27c0-1.68,1.11-3,2.37-3l87.56,1.63C157.79,80.47,158.79,81.87,158.74,83.57Z"/><path class="cls-19" d="M68.73,91.35a9.25,9.25,0,1,0,9.53-9.21A9.36,9.36,0,0,0,68.73,91.35Z"/><path class="cls-9" d="M81.44,87.89c0,1.7-1.49,3.5-3.2,3.45s-3-1.93-3-3.64a3.1,3.1,0,0,1,6.18.19Z"/><path class="cls-9" d="M74.22,97.79l7.53.22a1.84,1.84,0,0,0,1.78-1.21L84,95.54a1.83,1.83,0,0,0-1-2.3,14.09,14.09,0,0,0-9.49-.18,1.82,1.82,0,0,0-1.23,2.17l.28,1.16A1.83,1.83,0,0,0,74.22,97.79Z"/><path class="cls-20" d="M92.52,94.55a1.79,1.79,0,0,0,1.74,1.84L147,98a1.8,1.8,0,0,0,1.85-1.74h0a1.8,1.8,0,0,0-1.74-1.85L94.37,92.81a1.8,1.8,0,0,0-1.85,1.74Z"/><path class="cls-21" d="M148.86,102.42a1.7,1.7,0,0,0-1.64-1.74l-28.35-.85a1.69,1.69,0,0,0-1.74,1.64h0a1.7,1.7,0,0,0,1.64,1.74l28.34.85a1.69,1.69,0,0,0,1.75-1.64Z"/><path class="cls-22" d="M116.09,101.44a1.69,1.69,0,0,0-1.64-1.74l-20.54-.62a1.7,1.7,0,0,0-1.74,1.64h0a1.68,1.68,0,0,0,1.64,1.74l20.54.62a1.68,1.68,0,0,0,1.74-1.64Z"/><path class="cls-23" d="M100.11,85.73a.35.35,0,0,0,.1-.36.33.33,0,0,0-.27-.24l-2.75-.49L96,82.11a.35.35,0,0,0-.31-.2.34.34,0,0,0-.32.18l-1.22,2.3a.33.33,0,0,1-.27.18l-2.58.3a.32.32,0,0,0-.29.23.33.33,0,0,0,.08.36l1.8,1.87a.36.36,0,0,1,.1.31l-.52,2.55a.34.34,0,0,0,.13.35.36.36,0,0,0,.36,0l2.34-1.15a.38.38,0,0,1,.33,0l2.26,1.28a.35.35,0,0,0,.37,0,.36.36,0,0,0,.15-.34l-.36-2.58a.32.32,0,0,1,.11-.3Z"/><path class="cls-24" d="M112.45,86.1a.35.35,0,0,0-.17-.6L109.53,85l-1.16-2.53a.33.33,0,0,0-.3-.2.32.32,0,0,0-.32.18l-1.22,2.3a.36.36,0,0,1-.27.18l-2.59.3a.34.34,0,0,0-.29.23.37.37,0,0,0,.08.36l1.81,1.87a.35.35,0,0,1,.09.31l-.52,2.55a.35.35,0,0,0,.5.39l2.34-1.15a.36.36,0,0,1,.32,0l2.27,1.28a.35.35,0,0,0,.37,0,.38.38,0,0,0,.15-.34l-.37-2.58a.38.38,0,0,1,.11-.3Z"/><path class="cls-25" d="M124.79,86.47a.39.39,0,0,0,.1-.36.36.36,0,0,0-.28-.24l-2.74-.49-1.16-2.53a.35.35,0,0,0-.31-.2.34.34,0,0,0-.32.18l-1.22,2.3a.33.33,0,0,1-.27.18l-2.58.3a.33.33,0,0,0-.29.23.33.33,0,0,0,.08.36l1.81,1.87a.35.35,0,0,1,.09.31l-.52,2.55a.34.34,0,0,0,.13.35.36.36,0,0,0,.36,0L120,90.17a.38.38,0,0,1,.33,0l2.27,1.28a.34.34,0,0,0,.36,0,.36.36,0,0,0,.15-.34l-.36-2.58a.32.32,0,0,1,.11-.3Z"/><path class="cls-26" d="M137.12,86.84a.35.35,0,0,0-.17-.6l-2.75-.49L133,83.22a.33.33,0,0,0-.3-.2.33.33,0,0,0-.32.18l-1.22,2.3a.36.36,0,0,1-.27.18l-2.59.3a.36.36,0,0,0-.29.23.37.37,0,0,0,.08.36l1.81,1.87a.33.33,0,0,1,.09.31l-.51,2.55a.35.35,0,0,0,.12.35.38.38,0,0,0,.37,0l2.34-1.15a.36.36,0,0,1,.32,0l2.27,1.28a.35.35,0,0,0,.37,0,.36.36,0,0,0,.15-.34l-.37-2.58a.38.38,0,0,1,.11-.3Z"/><path class="cls-27" d="M149.46,87.21a.37.37,0,0,0,.1-.36.36.36,0,0,0-.28-.24l-2.74-.48-1.16-2.54a.34.34,0,0,0-.31-.2.32.32,0,0,0-.31.18l-1.23,2.3a.33.33,0,0,1-.26.18l-2.59.3a.36.36,0,0,0-.29.23.37.37,0,0,0,.08.36l1.81,1.87a.35.35,0,0,1,.09.31l-.52,2.55a.35.35,0,0,0,.49.39l2.35-1.15a.36.36,0,0,1,.32,0l2.27,1.28a.34.34,0,0,0,.36,0,.36.36,0,0,0,.15-.34l-.36-2.58a.32.32,0,0,1,.11-.3Z"/><path class="cls-9" d="M157.52,124.3,156.9,145c-.05,1.68-1.12,3-2.39,3l-75.38-2.26a2.54,2.54,0,0,0-2.3,2.24l-1.57,7.17c-.21,1-1.21,1-1.44.07l-1.56-6.14a2.43,2.43,0,0,0-2.09-2l-3.24-.1c-1.26,0-2.25-1.43-2.2-3.12l.64-21.27c0-1.68,1.1-3,2.36-3l87.56,1.63C156.57,121.21,157.57,122.61,157.52,124.3Z"/><ellipse class="cls-28" cx="76.75" cy="132.37" rx="9.49" ry="9.25" transform="translate(-57.86 205.1) rotate(-88.28)"/><path class="cls-9" d="M80.21,128.62c0,1.7-1.48,3.5-3.19,3.45s-3-1.93-3-3.64a3.09,3.09,0,0,1,6.17.19Z"/><path class="cls-9" d="M73,138.52l7.54.23a1.82,1.82,0,0,0,1.77-1.22l.45-1.25a1.82,1.82,0,0,0-1-2.3,14,14,0,0,0-9.48-.19A1.82,1.82,0,0,0,71,136l.27,1.16A1.83,1.83,0,0,0,73,138.52Z"/><path class="cls-29" d="M147.54,137a1.8,1.8,0,0,1-1.85,1.74l-52.78-1.59a1.79,1.79,0,0,1-1.74-1.84h0A1.8,1.8,0,0,1,93,133.54l52.78,1.58a1.8,1.8,0,0,1,1.74,1.85Z"/><path class="cls-30" d="M122.68,142.24a1.7,1.7,0,0,1-1.74,1.64L92.59,143A1.7,1.7,0,0,1,91,141.29h0a1.69,1.69,0,0,1,1.75-1.64l28.34.85a1.69,1.69,0,0,1,1.64,1.74Z"/><path class="cls-31" d="M147.64,143a1.7,1.7,0,0,1-1.74,1.64L125.36,144a1.69,1.69,0,0,1-1.64-1.74h0a1.68,1.68,0,0,1,1.74-1.64l20.54.62a1.68,1.68,0,0,1,1.64,1.74Z"/><path class="cls-32" d="M98.89,126.46a.34.34,0,0,0,.1-.35.34.34,0,0,0-.27-.25L96,125.38l-1.16-2.54a.33.33,0,0,0-.3-.2.37.37,0,0,0-.32.18L93,125.12a.37.37,0,0,1-.27.19l-2.59.29a.35.35,0,0,0-.28.23.34.34,0,0,0,.07.36l1.81,1.87a.33.33,0,0,1,.09.31l-.51,2.56a.34.34,0,0,0,.12.34.36.36,0,0,0,.37,0l2.34-1.14a.33.33,0,0,1,.32,0l2.27,1.28a.35.35,0,0,0,.37,0,.33.33,0,0,0,.15-.33l-.37-2.58a.39.39,0,0,1,.11-.31Z"/><path class="cls-33" d="M111.23,126.83a.35.35,0,0,0-.18-.6l-2.74-.48-1.16-2.54a.33.33,0,0,0-.31-.2.35.35,0,0,0-.31.18l-1.23,2.3a.34.34,0,0,1-.26.19l-2.59.29a.38.38,0,0,0-.29.23.36.36,0,0,0,.08.36l1.81,1.87a.37.37,0,0,1,.09.32l-.52,2.55a.36.36,0,0,0,.13.34.35.35,0,0,0,.37,0l2.34-1.14a.33.33,0,0,1,.32,0l2.27,1.28a.35.35,0,0,0,.51-.35l-.36-2.58a.36.36,0,0,1,.11-.31Z"/><path class="cls-34" d="M123.56,127.2a.34.34,0,0,0,.1-.35.35.35,0,0,0-.27-.25l-2.75-.48-1.15-2.54a.35.35,0,0,0-.31-.2.37.37,0,0,0-.32.18l-1.22,2.3a.34.34,0,0,1-.27.19l-2.59.29a.35.35,0,0,0-.28.23.34.34,0,0,0,.07.36l1.81,1.87a.34.34,0,0,1,.09.32l-.51,2.55a.33.33,0,0,0,.13.34.34.34,0,0,0,.36,0l2.34-1.14a.35.35,0,0,1,.33,0l2.26,1.28a.35.35,0,0,0,.37,0,.33.33,0,0,0,.15-.33l-.36-2.58a.33.33,0,0,1,.11-.31Z"/><path class="cls-35" d="M135.9,127.57a.34.34,0,0,0,.1-.35.36.36,0,0,0-.28-.25l-2.74-.48L131.82,124a.33.33,0,0,0-.3-.2.36.36,0,0,0-.32.18l-1.22,2.3a.37.37,0,0,1-.27.19l-2.59.29a.38.38,0,0,0-.29.23.36.36,0,0,0,.08.36l1.81,1.87a.37.37,0,0,1,.09.32l-.52,2.55a.36.36,0,0,0,.13.34.36.36,0,0,0,.37,0l2.34-1.14a.33.33,0,0,1,.32,0l2.27,1.28a.35.35,0,0,0,.37,0,.33.33,0,0,0,.14-.33l-.36-2.58a.39.39,0,0,1,.11-.31Z"/><path class="cls-36" d="M148.24,127.94a.35.35,0,0,0,.09-.35.35.35,0,0,0-.27-.25l-2.74-.48-1.16-2.54a.35.35,0,0,0-.31-.2.38.38,0,0,0-.32.18l-1.22,2.3a.34.34,0,0,1-.27.19l-2.58.29a.35.35,0,0,0-.29.23.32.32,0,0,0,.08.36l1.81,1.87a.41.41,0,0,1,.09.32l-.52,2.55a.33.33,0,0,0,.13.34.34.34,0,0,0,.36,0l2.34-1.14a.35.35,0,0,1,.33,0l2.26,1.28a.35.35,0,0,0,.37,0,.33.33,0,0,0,.15-.33l-.36-2.58a.33.33,0,0,1,.11-.31Z"/><path class="cls-37" d="M138.27,150.5a1.26,1.26,0,0,1-1.26-1.23c0-.81-.47-19.72,12.59-21.74a9,9,0,0,1,7.35,2c6.44,5.31,7.05,19.11,7.07,19.69a1.27,1.27,0,1,1-2.53.1c0-.13-.58-13.25-6.15-17.84A6.42,6.42,0,0,0,150,130c-10.87,1.68-10.46,19-10.45,19.16a1.27,1.27,0,0,1-1.23,1.31Z"/><path class="cls-38" d="M115.53,197.91,124.81,145l34.85-.57,11.23,57H118.55A3,3,0,0,1,115.53,197.91Z"/><path class="cls-39" d="M166.43,145l-6.77-.57,11.23,57h6.72a2.15,2.15,0,0,0,2.11-2.58Z"/><path class="cls-40" d="M130.78,150.35a1.26,1.26,0,0,1-1.26-1.22c0-.81-.46-19.73,12.59-21.75a9,9,0,0,1,7.35,2c6.45,5.31,7,19.11,7.07,19.7a1.25,1.25,0,0,1-1.21,1.31,1.26,1.26,0,0,1-1.32-1.21c0-.14-.58-13.26-6.15-17.84a6.42,6.42,0,0,0-5.35-1.41c-10.87,1.68-10.45,19-10.45,19.16a1.26,1.26,0,0,1-1.23,1.3Z"/><path class="cls-41" d="M168.56,173.2a.48.48,0,0,1-.48-.46,27.32,27.32,0,0,1,.95-7.37c1.41-5,4.24-8,8.19-8.62a6.3,6.3,0,0,1,5.19,1.38c4.72,3.89,5.17,14.14,5.18,14.57a.47.47,0,0,1-.46.5.47.47,0,0,1-.5-.46c0-.1-.45-10.25-4.83-13.87a5.38,5.38,0,0,0-4.43-1.17c-8.65,1.34-8.33,14.87-8.33,15a.48.48,0,0,1-.46.49Z"/><path class="cls-42" d="M151.33,198.72l7-29.22,26.41-.44,8.51,32.31H153.61A2.31,2.31,0,0,1,151.33,198.72Z"/><path class="cls-43" d="M189.9,169.5l-5.13-.44,8.51,32.31h5.09a1.63,1.63,0,0,0,1.6-2Z"/><path class="cls-44" d="M182.77,181.84l-.8-2.58a1.59,1.59,0,0,0-.75-.92l-3.69-2a1.61,1.61,0,0,0-1.16-.14l-2.64.71a1.6,1.6,0,0,0-1,.73l-9.34,16.14a1.56,1.56,0,0,0,.61,2.17l8.31,4.53a1.57,1.57,0,0,0,2.17-.69L182.68,183A1.58,1.58,0,0,0,182.77,181.84Zm-5-1.59a1.17,1.17,0,0,1-.54-1.84,1.16,1.16,0,0,1,1.3-.38,1.17,1.17,0,1,1-.76,2.22Z"/><path class="cls-45" d="M172.92,181.7l6.71,2.3a.46.46,0,0,1,.25.65l-.19.35a.45.45,0,0,1-.57.2l-6.52-2.65a.45.45,0,0,1-.23-.63h0A.46.46,0,0,1,172.92,181.7Z"/><path class="cls-45" d="M171.92,183.53l6.71,2.3a.47.47,0,0,1,.25.65l-.19.35a.45.45,0,0,1-.57.2l-6.52-2.64a.46.46,0,0,1-.22-.64h0A.44.44,0,0,1,171.92,183.53Z"/><circle class="cls-46" cx="171.16" cy="192.52" r="3.87"/><circle class="cls-47" cx="171.16" cy="192.52" r="3.75"/><path class="cls-9" d="M173.33,190.08a.22.22,0,0,1-.15-.06,3.26,3.26,0,0,0-3.85-.14.25.25,0,0,1-.34-.06.24.24,0,0,1,.06-.34,3.69,3.69,0,0,1,3.88-.21,4.14,4.14,0,0,1,.55.38.24.24,0,0,1,0,.34A.25.25,0,0,1,173.33,190.08Z"/><circle class="cls-45" cx="171.19" cy="192.63" r="3.17" transform="translate(-70.91 280.97) rotate(-68.42)"/><path class="cls-48" d="M169.79,194.56l.16-.31a2.86,2.86,0,0,1-.75-.64.2.2,0,0,1,0-.26l.23-.24a.19.19,0,0,1,.3,0,2.31,2.31,0,0,0,.7.59c.3.17.58.19.7,0s0-.4-.37-.75c-.51-.49-.8-1-.52-1.52a1.14,1.14,0,0,1,1.48-.42l.16-.3a.2.2,0,0,1,.28-.08l.17.09a.2.2,0,0,1,.08.28l-.14.27a2.28,2.28,0,0,1,.6.49.2.2,0,0,1,0,.27l-.22.22a.19.19,0,0,1-.29,0,2.31,2.31,0,0,0-.6-.48c-.36-.19-.54-.1-.62,0s.07.4.46.8c.56.57.69,1,.41,1.5a1.19,1.19,0,0,1-1.53.43l-.18.33a.19.19,0,0,1-.27.08l-.18-.09A.19.19,0,0,1,169.79,194.56Z"/><path class="cls-49" d="M177.92,179.84a.28.28,0,0,1-.15-.29,3.89,3.89,0,0,1,2.23-2.74c.29-.16.59-.3.87-.44a7.44,7.44,0,0,0,2-1.23,3.62,3.62,0,0,0,1-3.29,2.32,2.32,0,0,0-2-1.49c-.88,0-2.53.73-3.76,5.77a.3.3,0,0,1-.58-.14c1.26-5.17,3.06-6.24,4.35-6.22a2.86,2.86,0,0,1,2.53,1.95,4.25,4.25,0,0,1-1.17,3.85,8.21,8.21,0,0,1-2.13,1.34c-.29.13-.58.27-.85.42a3.43,3.43,0,0,0-1.93,2.28.3.3,0,0,1-.33.27Z"/><path class="cls-50" d="M162.89,173.09a.49.49,0,0,1-.49-.46,27.69,27.69,0,0,1,.95-7.36c1.41-5,4.24-8,8.19-8.63a6.33,6.33,0,0,1,5.19,1.38c4.72,3.89,5.17,14.14,5.19,14.57a.48.48,0,0,1-1,0c0-.1-.45-10.25-4.84-13.87a5.42,5.42,0,0,0-4.43-1.17c-8.65,1.34-8.33,14.87-8.32,15a.48.48,0,0,1-.47.49Z"/><path class="cls-51" d="M31.14,194.5s-.41,2.28-.6,4.53A1.55,1.55,0,0,0,32,200.71c3,.13,9.42.37,11.72.27a.51.51,0,0,0,.44-.7h0a1.13,1.13,0,0,0-.57-.61L33,194.8Z"/><path class="cls-52" d="M30.81,193.16l.32,2.73s1.86.86,3.12-.11l-.77-3Z"/><path class="cls-53" d="M31.05,142c-.14.71-.75,35.46,3,51a.52.52,0,0,1-.31.61,9.15,9.15,0,0,1-3,.62.92.92,0,0,1-.9-.65c-1.07-3.62-6.15-21.72-6.82-39-.74-19.33,0-.66,0-.66L23.4,142Z"/><path class="cls-54" d="M18.94,195.69a16.4,16.4,0,0,0-1.26,4.2,1,1,0,0,0,.84,1.13c1,.1,2.51.23,3.73.22a1,1,0,0,0,.94-1.06,8,8,0,0,0-1.86-4.36Z"/><path class="cls-55" d="M18.38,192.19l.76,4.11a2.64,2.64,0,0,0,2.22.16L21,192Z"/><path class="cls-56" d="M16.34,143.06c-3,18.34.66,45.33,1.91,50.61a.82.82,0,0,0,.67.62,5.41,5.41,0,0,0,2.37-.09.75.75,0,0,0,.54-.7c.17-4.27-.13-30.48,2.7-40.84a2.41,2.41,0,0,1,.91-1.3l5.5-3.91.42-6.31Z"/><path class="cls-57" d="M35.71,108.31a85.41,85.41,0,0,0-19.16,2.4c-2.71,15.83-.47,34.1-.47,34.1,7.05,1.85,15-1.13,15-1.13,1.17-6.62,6.64-25.25,6.64-25.25a29.89,29.89,0,0,0,11.13-3.53A19.58,19.58,0,0,1,45,106.83,30.44,30.44,0,0,1,35.71,108.31Z"/><path class="cls-58" d="M62.6,94.9a1.73,1.73,0,0,0-2-.57C59.24,100,52.21,104.58,45,106.83a19.58,19.58,0,0,0,3.86,8.07C60.83,108.16,62.6,94.9,62.6,94.9Z"/><path class="cls-59" d="M62.39,95.18c.09.29-1,.75-1.63-.47,0-.58-.38-3.08,0-3.56a46.9,46.9,0,0,1,5.45-5.7.86.86,0,0,1,.11,1.19l-1.74,1.82a8.83,8.83,0,0,1,1,2,2.46,2.46,0,0,1-.25,1.8,19.29,19.29,0,0,1-1.12,1.84A2.42,2.42,0,0,1,62.39,95.18Z"/><path class="cls-60" d="M63.78,89.64,62.19,91l-.5,1.34,1.42,1.57a18.74,18.74,0,0,1,.83-3.24C64.3,90.09,64.11,89.81,63.78,89.64Z"/><path class="cls-61" d="M20,119.52l-3.49-8.81s-8.5,5.77-9.9,13.1a19.5,19.5,0,0,1,7.16,2C15.1,122.91,20,119.52,20,119.52Z"/><path class="cls-62" d="M26.48,100.92l-2.9,8.38a.31.31,0,0,0,.14.36,6.82,6.82,0,0,0,7.07-.47,1.44,1.44,0,0,0,.65-1l.94-7.25Z"/><path class="cls-63" d="M32.79,93.16s3.18,6,2.77,8.41-4.35,2.25-7.79.28l-2.41-6.47Z"/><path class="cls-64" d="M27.92,98.68a.26.26,0,0,0,.11-.37,6.21,6.21,0,0,1-.89-1.88s-.57-.36,1.46-.85,5-1.24,5.68-3-1-5.92-3.6-2.54a.25.25,0,0,1-.39,0,2.54,2.54,0,0,0-3.1-1,2.33,2.33,0,0,0-1.6,2.26.25.25,0,0,1-.29.25A2.86,2.86,0,0,0,22,93.13c-.67,1.49-.23,2.33.17,2.75a.24.24,0,0,1-.11.4A1.48,1.48,0,0,0,21,98c.08,1.57,1.83,1.43,2.33,1.36a.25.25,0,0,1,.22.08c.43.47,2.35,2.48,4.44,2.72a.25.25,0,0,0,.26-.33l-.9-2.62a.25.25,0,0,1,.13-.31Z"/><path class="cls-65" d="M28.28,99.05S26,97.49,25.85,98.8s2,1.9,3.13,1.41Z"/><path class="cls-66" d="M46,173.1a.65.65,0,0,1-.62-.52l-4.13-22.16a.64.64,0,0,1,1.25-.24l4.13,22.17a.64.64,0,0,1-.51.74Z"/><path class="cls-67" d="M75.35,173.92H41.41a1.27,1.27,0,0,1,0-2.54H74.52l8.58-19.82h-49a1.27,1.27,0,1,1,0-2.54H85a1.26,1.26,0,0,1,1.06.57,1.28,1.28,0,0,1,.1,1.2l-9.67,22.36A1.27,1.27,0,0,1,75.35,173.92Z"/><path class="cls-68" d="M73.1,196.11H46.36a1.32,1.32,0,0,1-1.27-.94L29.16,142H18a1.32,1.32,0,0,1,0-2.64H30.15a1.33,1.33,0,0,1,1.27.94l15.92,53.14H73.1a1.32,1.32,0,1,1,0,2.64Z"/><circle class="cls-69" cx="46.41" cy="198.09" r="3.3" transform="translate(-156.38 214.54) rotate(-81.45)"/><path class="cls-70" d="M48.71,198.09a2.39,2.39,0,1,1-2.39-2.38A2.39,2.39,0,0,1,48.71,198.09Z"/><circle class="cls-71" cx="71.4" cy="198.09" r="3.3" transform="translate(-137.8 222.07) rotate(-76.72)"/><path class="cls-72" d="M73.69,198.09a2.39,2.39,0,1,1-2.38-2.38A2.39,2.39,0,0,1,73.69,198.09Z"/><path class="cls-73" d="M51.69,173.2a.64.64,0,0,1-.64-.63l-.44-21.95a.64.64,0,0,1,.62-.65.63.63,0,0,1,.65.62l.44,22a.64.64,0,0,1-.62.65Z"/><path class="cls-74" d="M58.13,173.1a.64.64,0,0,1-.63-.64V150.6a.63.63,0,0,1,.63-.63.64.64,0,0,1,.64.63v21.86A.64.64,0,0,1,58.13,173.1Z"/><path class="cls-75" d="M65.69,173h0a.64.64,0,0,1-.63-.64l.15-21.76a.64.64,0,0,1,.64-.63h0a.63.63,0,0,1,.63.64l-.15,21.76A.63.63,0,0,1,65.69,173Z"/><path class="cls-76" d="M70.6,172.81h-.12a.65.65,0,0,1-.51-.75L74.1,150.8a.63.63,0,1,1,1.24.24l-4.12,21.25A.64.64,0,0,1,70.6,172.81Z"/><path class="cls-77" d="M82.71,156.37H35.87a.63.63,0,0,1,0-1.26H82.71a.63.63,0,1,1,0,1.26Z"/><path class="cls-78" d="M79.89,162.82H38a.64.64,0,0,1-.64-.63.64.64,0,0,1,.64-.64h41.9a.64.64,0,0,1,.64.64A.64.64,0,0,1,79.89,162.82Z"/><path class="cls-79" d="M77.07,168.76H39.6a.63.63,0,1,1,0-1.26H77.07a.63.63,0,1,1,0,1.26Z"/><path class="cls-80" d="M6.71,123.88S.89,137.12,15.1,139.06L17,137.45s-7.1-3.88-3.23-11.63C13.81,125.82,9.61,122.27,6.71,123.88Z"/><path class="cls-81" d="M17,137.45h5.17s3.23,4.2,2.91,5.17-3.52.19-3.52.19L20,140s-4.85.32-4.85-1S17,137.45,17,137.45Z"/><path class="cls-9" d="M32.83,92.9a.05.05,0,0,1,0,0,.06.06,0,0,1,0-.08,1.67,1.67,0,0,0,.72-1.18,3,3,0,0,0-.73-1.93.06.06,0,0,1,0-.09.06.06,0,0,1,.09,0,3.09,3.09,0,0,1,.75,2,1.81,1.81,0,0,1-.76,1.26Z"/><path class="cls-82" d="M59.72,1.15a1.49,1.49,0,0,0-1.32.66c-6,9.52-12.07,19.38-18.11,28.49h17.8C62.73,21.19,67.37,11,72,1.15Z"/><path class="cls-83" d="M75.88,30.52H58.09L72,1.22H85.17Z"/><path class="cls-84" d="M93.68,30.52H75.88l9.29-29.3H98.32Q96,15.88,93.68,30.52Z"/><path class="cls-85" d="M111.47,30.52H93.68Q96,15.87,98.32,1.22h13.15Z"/><path class="cls-86" d="M129.27,30.52h-17.8V1.22h13.15Z"/><path class="cls-87" d="M147.06,30.52H129.27l-4.65-29.3h13.16Q142.42,15.88,147.06,30.52Z"/><path class="cls-88" d="M164.86,30.52h-17.8q-4.63-14.65-9.28-29.3h13.15Q157.89,15.88,164.86,30.52Z"/><path class="cls-89" d="M164.54,1.81a1.47,1.47,0,0,0-1.32-.66H150.93c4.64,9.89,9.28,20,13.93,29.15h17.79C176.61,21.19,170.58,11.33,164.54,1.81Z"/><path class="cls-90" d="M40,30.3v5.08c0,4.23,4.3,7.41,9.2,7.41h.19c4.9,0,8.83-3.18,8.83-7.41V30.3Z"/><path class="cls-91" d="M58.25,30.3v5.08c0,4.23,3.79,7.41,8.61,7.41h.19c4.82,0,8.64-3.18,8.64-7.41V30.3Z"/><path class="cls-92" d="M75.69,30.3v5.08c0,4.23,4.2,7.41,9.1,7.41H85c4.9,0,8.67-3.18,8.67-7.41V30.3Z"/><path class="cls-93" d="M93.65,30.3v5.08c0,4.23,3.95,7.41,8.77,7.41h.18c4.82,0,8.75-3.18,8.75-7.41V30.3Z"/><path class="cls-94" d="M111.35,30.3v5.08c0,4.23,4.09,7.41,9,7.41h.2c4.9,0,8.5-3.18,8.5-7.41V30.3Z"/><path class="cls-95" d="M129,30.3v5.08c0,4.23,4.11,7.41,8.93,7.41h.19c4.82,0,8.84-3.18,8.84-7.41V30.3Z"/><path class="cls-96" d="M147,30.3v5.08c0,4.23,4,7.41,8.9,7.41h.19c4.9,0,8.87-3.18,8.87-7.41V30.3Z"/><path class="cls-97" d="M165,30.3v5.08c0,4.23,3.75,7.41,8.57,7.41h.19c4.82,0,8.68-3.18,8.68-7.41V30.3Z"/></g></g></g></svg>