<svg xmlns="http://www.w3.org/2000/svg" xmlns:xlink="http://www.w3.org/1999/xlink" viewBox="0 0 296.89 300"><defs><style>.cls-1{opacity:0.3;isolation:isolate;fill:url(#Sfumatura_senza_nome_8);}.cls-2{fill:#91b3fa;}.cls-3{fill:#7d97f4;}.cls-4{fill:#bdd0fb;}.cls-5{fill:url(#linear-gradient);}.cls-6{fill:#1f5aa9;}.cls-7{opacity:0.8;}.cls-8{fill:#fff;}.cls-9{fill:url(#linear-gradient-2);}.cls-10{fill:url(#linear-gradient-3);}.cls-11{fill:url(#linear-gradient-4);}.cls-12{fill:url(#linear-gradient-5);}.cls-13{fill:url(#linear-gradient-6);}.cls-14{fill:url(#linear-gradient-7);}.cls-15{fill:url(#linear-gradient-8);}.cls-16{fill:url(#linear-gradient-9);}.cls-17{fill:url(#linear-gradient-10);}.cls-18{fill:url(#linear-gradient-11);}.cls-19{fill:url(#linear-gradient-12);}.cls-20{fill:url(#linear-gradient-13);}.cls-21{fill:url(#linear-gradient-14);}.cls-22{fill:url(#linear-gradient-15);}.cls-23{fill:url(#linear-gradient-16);}.cls-24{fill:url(#Sfumatura_senza_nome_45);}.cls-25{fill:url(#linear-gradient-17);}.cls-26{fill:url(#Sfumatura_senza_nome_92);}.cls-27{fill:url(#Sfumatura_senza_nome_92-2);}.cls-28{fill:url(#linear-gradient-18);}.cls-29{fill:url(#Sfumatura_senza_nome_92-3);}.cls-30{fill:url(#linear-gradient-19);}.cls-31{fill:url(#Sfumatura_senza_nome_92-4);}.cls-32{fill:url(#linear-gradient-20);}.cls-33{fill:url(#Sfumatura_senza_nome_92-5);}.cls-34{fill:url(#linear-gradient-21);}.cls-35{fill:url(#Sfumatura_senza_nome_92-6);}.cls-36{fill:url(#linear-gradient-22);}.cls-37{fill:url(#Sfumatura_senza_nome_92-7);}.cls-38{fill:url(#linear-gradient-23);}.cls-39{fill:url(#Sfumatura_senza_nome_92-8);}.cls-40{fill:url(#linear-gradient-24);}.cls-41{fill:url(#Sfumatura_senza_nome_92-9);}.cls-42{fill:url(#linear-gradient-25);}.cls-43{fill:url(#Sfumatura_senza_nome_92-10);}.cls-44{fill:url(#linear-gradient-26);}</style><linearGradient id="Sfumatura_senza_nome_8" x1="334.93" y1="384.11" x2="73.39" y2="59.29" gradientUnits="userSpaceOnUse"><stop offset="0" stop-color="#b37cff"/><stop offset="1" stop-color="#f895e7"/></linearGradient><linearGradient id="linear-gradient" x1="4.45" y1="217.86" x2="186.51" y2="217.86" gradientTransform="translate(65.22 -65.37) rotate(-1.25)" gradientUnits="userSpaceOnUse"><stop offset="0" stop-color="#09005d"/><stop offset="1" stop-color="#1a0f91"/></linearGradient><linearGradient id="linear-gradient-2" x1="-6989.58" y1="-33.34" x2="-6975.69" y2="-33.34" gradientTransform="translate(7054.69 680.02) rotate(2.91)" xlink:href="#linear-gradient"/><linearGradient id="linear-gradient-3" x1="-6832.84" y1="-302.9" x2="-6827.21" y2="-302.9" gradientTransform="translate(6900.5 -177.38) rotate(-6.43)" gradientUnits="userSpaceOnUse"><stop offset="0" stop-color="#febbba"/><stop offset="1" stop-color="#ff928e"/></linearGradient><linearGradient id="linear-gradient-4" x1="-6900.78" y1="-258.69" x2="-6878.99" y2="-258.69" gradientTransform="translate(6990.76 792.57) rotate(2)" xlink:href="#linear-gradient"/><linearGradient id="linear-gradient-5" x1="-6975.56" y1="-80.46" x2="-6969.95" y2="-80.46" gradientTransform="translate(7004.48 1314.51) rotate(7.83)" xlink:href="#linear-gradient-3"/><linearGradient id="linear-gradient-6" x1="215.12" y1="61.86" x2="120.68" y2="192.13" gradientTransform="matrix(1, 0, 0, 1, 0, 0)" xlink:href="#linear-gradient"/><linearGradient id="linear-gradient-7" x1="72" y1="210.15" x2="81.48" y2="210.15" gradientUnits="userSpaceOnUse"><stop offset="0" stop-color="#4f52ff"/><stop offset="1" stop-color="#4042e2"/></linearGradient><linearGradient id="linear-gradient-8" x1="123.39" y1="30.16" x2="115.43" y2="87.31" xlink:href="#linear-gradient-7"/><linearGradient id="linear-gradient-9" x1="-6767.28" y1="-465.41" x2="-6744.74" y2="-465.41" xlink:href="#linear-gradient-3"/><linearGradient id="linear-gradient-10" x1="129.32" y1="119.37" x2="75.78" y2="214.86" xlink:href="#linear-gradient-7"/><linearGradient id="linear-gradient-11" x1="-6720.14" y1="-461.62" x2="-6765.12" y2="-405.66" xlink:href="#linear-gradient-3"/><linearGradient id="linear-gradient-12" x1="-6711.61" y1="-454.77" x2="-6756.6" y2="-398.8" xlink:href="#linear-gradient-3"/><linearGradient id="linear-gradient-13" x1="-6770.75" y1="-495.44" x2="-6814.31" y2="-415.39" xlink:href="#linear-gradient-3"/><linearGradient id="linear-gradient-14" x1="-5731.98" y1="-1299.11" x2="-5751.24" y2="-1273.63" gradientTransform="translate(5251.25 -2733.97) rotate(-41.65)" xlink:href="#linear-gradient-3"/><linearGradient id="linear-gradient-15" x1="-5746.69" y1="-1292.96" x2="-5723.69" y2="-1292.96" gradientTransform="translate(5251.25 -2733.97) rotate(-41.65)" xlink:href="#linear-gradient"/><linearGradient id="linear-gradient-16" x1="-5760.18" y1="-1278.93" x2="-5744.74" y2="-1294.78" gradientTransform="translate(5251.25 -2733.97) rotate(-41.65)" xlink:href="#linear-gradient-3"/><linearGradient id="Sfumatura_senza_nome_45" x1="152.02" y1="7.4" x2="158.47" y2="62.8" gradientUnits="userSpaceOnUse"><stop offset="0" stop-color="#a737d5"/><stop offset="1" stop-color="#ef497a"/></linearGradient><linearGradient id="linear-gradient-17" x1="273.18" y1="118.08" x2="232.67" y2="217.18" gradientUnits="userSpaceOnUse"><stop offset="0" stop-color="#e1473d"/><stop offset="1" stop-color="#e9605a"/></linearGradient><linearGradient id="Sfumatura_senza_nome_92" x1="265.6" y1="206.06" x2="181.69" y2="329.03" gradientUnits="userSpaceOnUse"><stop offset="0" stop-color="#cb236d"/><stop offset="1" stop-color="#4c246d"/></linearGradient><linearGradient id="Sfumatura_senza_nome_92-2" x1="393.36" y1="205.56" x2="279.06" y2="241.73" xlink:href="#Sfumatura_senza_nome_92"/><linearGradient id="linear-gradient-18" x1="262.35" y1="113.65" x2="221.84" y2="212.76" xlink:href="#linear-gradient-17"/><linearGradient id="Sfumatura_senza_nome_92-3" x1="331.15" y1="-537.07" x2="365.15" y2="-671.61" gradientTransform="matrix(0.93, 0.01, -0.01, 1.2, -252.73, 782.09)" xlink:href="#Sfumatura_senza_nome_92"/><linearGradient id="linear-gradient-19" x1="397.71" y1="-679.92" x2="327.72" y2="-561.1" gradientTransform="matrix(0.93, 0, 0, 1.2, -217.15, 745.38)" xlink:href="#linear-gradient-7"/><linearGradient id="Sfumatura_senza_nome_92-4" x1="375.6" y1="-525.83" x2="409.59" y2="-660.38" gradientTransform="matrix(0.93, 0.01, -0.01, 1.2, -252.73, 782.09)" xlink:href="#Sfumatura_senza_nome_92"/><linearGradient id="linear-gradient-20" x1="424.55" y1="-661.9" x2="377.35" y2="-555.56" gradientTransform="matrix(0.93, 0, 0, 1.2, -217.15, 745.38)" xlink:href="#linear-gradient-7"/><linearGradient id="Sfumatura_senza_nome_92-5" x1="421.24" y1="-514.3" x2="455.23" y2="-648.84" gradientTransform="matrix(0.93, 0.01, -0.01, 1.2, -252.73, 782.09)" xlink:href="#Sfumatura_senza_nome_92"/><linearGradient id="linear-gradient-21" x1="459.11" y1="-650.96" x2="428.73" y2="-552.76" gradientTransform="matrix(0.93, 0, 0, 1.2, -217.15, 745.38)" xlink:href="#linear-gradient-7"/><linearGradient id="Sfumatura_senza_nome_92-6" x1="464.63" y1="-503.33" x2="498.63" y2="-637.88" gradientTransform="matrix(0.93, 0.01, -0.01, 1.2, -252.73, 782.09)" xlink:href="#Sfumatura_senza_nome_92"/><linearGradient id="linear-gradient-22" x1="492.33" y1="-653.67" x2="485.82" y2="-544.62" gradientTransform="matrix(0.93, 0, 0, 1.2, -217.15, 745.38)" xlink:href="#linear-gradient-7"/><linearGradient id="Sfumatura_senza_nome_92-7" x1="345.39" y1="-627.16" x2="345.19" y2="-578.29" gradientTransform="matrix(0.93, 0.01, -0.01, 1.2, -252.73, 782.09)" xlink:href="#Sfumatura_senza_nome_92"/><linearGradient id="linear-gradient-23" x1="340.43" y1="-581.14" x2="349.84" y2="-642.63" gradientTransform="matrix(0.93, 0, 0, 1.2, -217.15, 745.38)" xlink:href="#linear-gradient-7"/><linearGradient id="Sfumatura_senza_nome_92-8" x1="398.38" y1="-627.15" x2="398.18" y2="-578.29" gradientTransform="matrix(0.93, 0.01, -0.01, 1.2, -252.73, 782.09)" xlink:href="#Sfumatura_senza_nome_92"/><linearGradient id="linear-gradient-24" x1="392.3" y1="-573.21" x2="401.7" y2="-634.7" gradientTransform="matrix(0.93, 0, 0, 1.2, -217.15, 745.38)" xlink:href="#linear-gradient-7"/><linearGradient id="Sfumatura_senza_nome_92-9" x1="451.37" y1="-627.15" x2="451.17" y2="-578.29" gradientTransform="matrix(0.93, 0.01, -0.01, 1.2, -252.73, 782.09)" xlink:href="#Sfumatura_senza_nome_92"/><linearGradient id="linear-gradient-25" x1="444.16" y1="-565.28" x2="453.57" y2="-626.77" gradientTransform="matrix(0.93, 0, 0, 1.2, -217.15, 745.38)" xlink:href="#linear-gradient-7"/><linearGradient id="Sfumatura_senza_nome_92-10" x1="504.76" y1="-627.15" x2="504.56" y2="-578.29" gradientTransform="matrix(0.93, 0.01, -0.01, 1.2, -252.73, 782.09)" xlink:href="#Sfumatura_senza_nome_92"/><linearGradient id="linear-gradient-26" x1="496.22" y1="-557.32" x2="505.62" y2="-618.81" gradientTransform="matrix(0.93, 0, 0, 1.2, -217.15, 745.38)" xlink:href="#linear-gradient-7"/></defs><g id="Livello_2" data-name="Livello 2"><g id="Illustration"><path class="cls-1" d="M263,256a106,106,0,0,1-16.18,13.62C194,307.51,131.54,296.47,118.26,293.77c-19.6-4-57.49-11.67-84.89-43.89-41.45-48.74-35-125.54-2.84-176.23,5.88-9.27,36.94-60.74,100.08-69,38.21-5,82.75,5.08,115,32.1C313.32,93.49,308.5,208.08,263,256Z"/><path class="cls-2" d="M81,188.63s.91-38.14-16.66-48.34-51-16.59-52.22-71.36c-.73-32.06-1.53-46.08-2.06-52.2a3.61,3.61,0,0,1,4.27-3.86C31,16,85,28.9,96.37,65.79,109.81,109.53,81,188.63,81,188.63Z"/><path class="cls-3" d="M27.22,28.11C45.49,44.39,66.6,73.22,77.86,102.05c1.45,4.75,5.67,14.85,7.51,32.8,1.64,15,.82,30.79-1.17,41.27a1.22,1.22,0,0,1-1.42,1,1.24,1.24,0,0,1-1-1.4,167.36,167.36,0,0,0-3.87-60.26c-6.65-24.67-21.47-48.59-36.8-68.88l-1.58-2C27.67,29.3,25.17,29.19,26.28,28.12A.69.69,0,0,1,27.22,28.11Z"/><path class="cls-4" d="M109.26,262c2.38,1.16-22.5-30.12-30.29-79.26-3.67-23.15-3.72-52.16-16.91-63.34-11-9.3-48.33-3.43-60.55-1.2a1.83,1.83,0,0,0-.85,3.21c5.86,4.92,18.39,16.53,21.66,28.23,4.31,15.43,19,25.24,32.1,27.89s20.43,5.23,26.82,26.23S102.51,258.65,109.26,262Z"/><path class="cls-2" d="M18.7,124.69c15.59.65,32.33,7.77,40.82,21.11l.8,1.27c1.86,3,12.35,24.21,18.18,41.8a.42.42,0,0,1-.79.28c-4.06-9.94-9.89-22.54-14.54-32-5-10.28-8.47-17.25-19.83-23.92a63.24,63.24,0,0,0-24.69-7.91.34.34,0,0,1,.05-.67Z"/><path class="cls-2" d="M98.6,266.08c1.41.74-7.95-15.36-8.66-29.54S86,198.14,73.78,183.65,48.15,167.85,31.27,181c-14.07,11-22.84,16.51-28,17.54A2,2,0,0,0,2,201.39c3.3,6.08,12.63,20,28.3,19.06,20-1.26,44.21-14.25,51.59-3.41s6.43,16.9,6.66,22S89.26,261.16,98.6,266.08Z"/><path class="cls-3" d="M36.94,198.41c6.13-5.87,16.1-11.64,24.81-10.57,11.34,1.83,18.89,9.4,23,20.67A68,68,0,0,1,88,221.72a.37.37,0,0,1-.73.15c-.69-2.75-1.38-5.64-2.41-8.62C78.88,194,66.12,191.4,65.62,191c-1,.09-6.81-4.29-20.68,3.18a60.53,60.53,0,0,0-7.48,4.8h0a.39.39,0,0,1-.54-.08A.38.38,0,0,1,36.94,198.41Z"/><path class="cls-5" d="M87.58,16.62A13.69,13.69,0,0,0,75.09,30.23C75,73.57,74.76,223,77.59,275.93A10.63,10.63,0,0,0,88.09,286c27.76.3,107.61.85,152.94-2.05a17.9,17.9,0,0,0,16.77-17.88c-.06-46.58-.82-179.64-7.48-236a9.73,9.73,0,0,0-8.9-8.57C215,19.41,128.61,13.05,87.58,16.62Z"/><path class="cls-2" d="M86.23,41.59c-.54,37.06-2.1,160.37.61,205.88a12.65,12.65,0,0,0,12,12.12c26.27.92,93.63,2.69,132-1.53a14.24,14.24,0,0,0,12.38-14c1-37.83,3.55-152.67.92-197.67A14,14,0,0,0,231.32,33c-28.44-1.92-101.48-6.34-134.12-3.62A12.22,12.22,0,0,0,86.23,41.59Z"/><path class="cls-6" d="M149.7,23.06A1.92,1.92,0,0,0,151.56,25c5.06.15,19.3.59,25.66.82a1.93,1.93,0,0,0,1.95-2.33,2,2,0,0,0-1.79-1.73c-4.31-.3-17.3-1.11-25.88-.61A2,2,0,0,0,149.7,23.06Z"/><g class="cls-7"><path class="cls-8" d="M199.44,179.72a2.3,2.3,0,0,0-1.9-.76l-67.72,1.42L128.11,175a1.76,1.76,0,0,0-1.75-1.22l-9.3.24a1.75,1.75,0,0,0-1.81,1.72,1.65,1.65,0,0,0,1.81,1.62l7.94-.19,14.38,45.94a1.89,1.89,0,0,0,1.79,1.32l47.54.64a1.84,1.84,0,0,0,2-1.74,1.88,1.88,0,0,0-2-1.79l-46.15-.5-3.7-11.93,50.71.08a2.35,2.35,0,0,0,2.24-1.62l8-25.88A2.08,2.08,0,0,0,199.44,179.72Z"/><path class="cls-8" d="M148.13,227.21a6.87,6.87,0,0,0-7.08,6.79,7.22,7.22,0,0,0,7.08,7.08,6.86,6.86,0,0,0,7.15-6.78A7.22,7.22,0,0,0,148.13,227.21Zm0,10.17a3.36,3.36,0,0,1-3.31-3.3,3.2,3.2,0,0,1,3.31-3.17,3.38,3.38,0,0,1,3.33,3.31A3.19,3.19,0,0,1,148.13,237.38Z"/><path class="cls-8" d="M179.81,227.71a7.11,7.11,0,0,0-7.42,6.94,7.48,7.48,0,0,0,7.42,7.26,7.11,7.11,0,0,0,7.51-6.94A7.49,7.49,0,0,0,179.81,227.71Zm0,10.41a3.48,3.48,0,0,1-3.47-3.38,3.31,3.31,0,0,1,3.47-3.24,3.49,3.49,0,0,1,3.5,3.38A3.32,3.32,0,0,1,179.81,238.12Z"/></g><path class="cls-9" d="M78.07,287.56s-1.67,2.35-2.4,9.14a1.12,1.12,0,0,0,1,1.23l12.06.61a.72.72,0,0,0,.72-.9c-.6-2.13-2.48-7.34-7.1-10.49Z"/><path class="cls-10" d="M76.43,283.88l1.32,5.61a1.09,1.09,0,0,0,1,.83,9.51,9.51,0,0,0,2.54-.31,1.77,1.77,0,0,0,1.25-1.9l-.62-5.5Z"/><path class="cls-11" d="M105.6,288a16.82,16.82,0,0,0-2.56,8.44,2.12,2.12,0,0,0,2.07,2.15l18.73.66a.9.9,0,0,0,.58-1.62c-3.46-2.61-10.27-7.5-15.24-9.51Z"/><path class="cls-12" d="M105.13,282l.48,7.2a1.45,1.45,0,0,0,1.55,1.37,5.32,5.32,0,0,0,1.73-.46,1.65,1.65,0,0,0,1-1.59l-.33-8.69Z"/><path class="cls-13" d="M67.83,187S63.3,192,63,197.45,76,289.22,76,289.22s5.12.27,7.54-1.6c0,0-3.27-56.64-2.4-69.91,0,0,18.84,56.93,23.42,67.08,0,0,4.92,0,6.37-1.05,0,0-11.73-75.23-17.28-88.21Z"/><path class="cls-14" d="M80.75,216.09a.74.74,0,0,1-.69-.47l-3-7.69-4.69-2.32a.73.73,0,0,1,.65-1.31l5,2.44a.72.72,0,0,1,.36.39l3.06,8A.73.73,0,0,1,81,216,.8.8,0,0,1,80.75,216.09Z"/><path class="cls-15" d="M111.83,131.28c-21.38.63-26.42,5.64-26.42,5.64l12,14.92s20.76-2.76,34.38-15.93a36.68,36.68,0,0,1-7-8.24A28.11,28.11,0,0,1,111.83,131.28Z"/><path class="cls-16" d="M144.54,101.51c-.11-.68-1.91-6.26-5.5-3.19l-.87,4.1a6.07,6.07,0,0,0-.07,3.63l1.32,3.25a5.82,5.82,0,0,1-.66,4.74,40.49,40.49,0,0,1-14,13.63,36.68,36.68,0,0,0,7,8.24,36.7,36.7,0,0,0,10.72-19.09,2.85,2.85,0,0,0,1.69-3Z"/><path class="cls-17" d="M119.85,139.81c-8.36-7.19-23-9.22-31.36-9.78a7.59,7.59,0,0,0-7.89,5.73c-2.58,10.37-9.73,37.38-11.18,42.05-1.18,3.83-2.45,7.58-3.26,9.93a2.68,2.68,0,0,0,1.65,3.42C75.1,193.71,88,196.08,93.19,197a1.73,1.73,0,0,0,2-1.91,5.45,5.45,0,0,1,.46-2.87l15.52-34c13.4,11.87,24,11.9,31.66,8.11a60.42,60.42,0,0,1-4.06-12.22C126.72,153.38,119.85,139.81,119.85,139.81Z"/><path class="cls-18" d="M158.11,149.65l-2.46-2.6c-6.38,5.53-12,7.31-16.86,7a60.42,60.42,0,0,0,4.06,12.22C153,161.3,158.11,149.65,158.11,149.65Z"/><path class="cls-19" d="M156.6,149.88l12.1-.89,10.38-7.44c-1.7-.82-10.47,2.23-10.47,2.23s-9.56-.36-12.11-.07c-2.11.23-1.47,3.24-1.19,4.25.06.21.1.33.1.33Z"/><path class="cls-20" d="M98.13,114l-4.6,16.21s7.87,4.23,13.68,3.09l1.6-14.29Z"/><path class="cls-21" d="M107.67,102.22c.17.19,6.43,15.76,6.43,15.76l-9,3.39L97,107.49S104.85,99.05,107.67,102.22Z"/><path class="cls-22" d="M100.73,109.32l3.71,7.64a1.27,1.27,0,0,0,.18.27c.44.5,2.09,2.1,3.63.32,1.39-1.62,2.69-3.08,4-3.47a1.18,1.18,0,0,1,1.43.7,51.4,51.4,0,0,1,2.43,7.58,1.18,1.18,0,0,1-.81,1.37,37.8,37.8,0,0,1-8.74,1.73,1.2,1.2,0,0,1-1.07-.57c-1.09-1.82-4.45-7.35-5.62-8.75s-3.4-1-4.36-.81a1.2,1.2,0,0,1-.9-.19c-.93-.65-2.75-2.36-.74-4.88a1.19,1.19,0,0,0-.22-1.7,3.08,3.08,0,0,1-.91-4.5,4.36,4.36,0,0,1,5-1.82,1.18,1.18,0,0,0,1.36-.68A.94.94,0,0,1,100,101a1.16,1.16,0,0,0,1.1-1.33,3.55,3.55,0,0,1,2.31-4c3.89-1.71,6.84,1.91,7.42,4.78s-3.75,4.5-6.39,4.6c-2,.07-3.26,2.21-3.74,3.23A1.18,1.18,0,0,0,100.73,109.32Z"/><path class="cls-23" d="M101.25,118.91s-1.22-5-3.35-5-4,1.94-1.57,4.54C99.32,121.7,101.25,118.91,101.25,118.91Z"/><path class="cls-24" d="M160.63,147.71a6.49,6.49,0,0,1-6-3l-21.25-34.12a7.29,7.29,0,0,1,2.4-9.79,6.76,6.76,0,0,1,9.59,1.8l14.74,23.69,19.45-39.61A7.28,7.28,0,0,1,188.93,83a6.71,6.71,0,0,1,3,9.22l-25.13,51.23a7.59,7.59,0,0,1-6,4.21Z"/><path class="cls-25" d="M224.05,195a.9.9,0,0,1-.9-.88,61.9,61.9,0,0,1,2.08-16.49c3.1-11.24,9.31-17.9,18-19.27a13.71,13.71,0,0,1,11.24,3C264.92,170,265.92,193.12,266,194.1a.91.91,0,0,1-1.81.07c0-.23-1-23.29-10.86-31.39a11.91,11.91,0,0,0-9.8-2.59c-19.25,3-18.55,33.61-18.54,33.92a.9.9,0,0,1-.87.93Z"/><path class="cls-26" d="M186,294,201.5,186.9l58.37-1L278.68,300H191A5.18,5.18,0,0,1,186,294Z"/><path class="cls-27" d="M271.2,186.9l-11.33-1L278.68,300h11.25a3.65,3.65,0,0,0,3.53-4.41Z"/><path class="cls-28" d="M252.51,194.79a.9.9,0,0,1-.9-.87c0-.23-1-23.29-10.86-31.39a11.92,11.92,0,0,0-9.81-2.59c-19.23,3-18.54,33.61-18.53,33.92a.91.91,0,0,1-1.81.06,62.11,62.11,0,0,1,2.09-16.49c3.1-11.25,9.31-17.91,18-19.27a13.62,13.62,0,0,1,11.24,3c10.48,8.61,11.48,31.74,11.51,32.72a.9.9,0,0,1-.86.93Z"/><path class="cls-29" d="M92.17,0a2.06,2.06,0,0,0-1.85.94c-8.54,14-17.09,28.43-25.63,41.78L89.46,43C96.06,29.6,102.67,14.7,109.28.17Z"/><path class="cls-30" d="M114.23,43.55,89.46,43.3q9.92-21.51,19.82-43l18.31.19Z"/><path class="cls-31" d="M139,43.8l-24.77-.25L127.59.46,145.9.64Z"/><path class="cls-32" d="M163.77,44.05,139,43.8,145.9.64l18.3.19Q164,22.45,163.77,44.05Z"/><path class="cls-33" d="M188.54,44.3l-24.77-.25Q164,22.44,164.2.83L182.51,1Z"/><path class="cls-34" d="M213.31,44.55l-24.77-.25L182.51,1l18.31.19Q207.06,22.88,213.31,44.55Z"/><path class="cls-35" d="M238.07,44.8l-24.76-.25Q207.05,22.88,200.82,1.2l18.31.18Q228.6,23.1,238.07,44.8Z"/><path class="cls-36" d="M238.07,2.44a2.06,2.06,0,0,0-1.83-1l-17.11-.18c6.31,14.66,12.62,29.7,19,43.2l24.08.24c.28,0,.44-.4.27-.68C254.3,30.71,246.19,16.33,238.07,2.44Z"/><path class="cls-37" d="M64.93,42.73a.68.68,0,0,0-.6.75l-.07,6.73c-.06,6.23,5.87,11,12.69,11.07h.27c6.82.07,12.34-4.58,12.4-10.82L89.69,43Z"/><path class="cls-38" d="M89.69,43l-.07,7.48c-.06,6.24,5.16,11,11.87,11.06h.26c6.71.07,12.08-4.59,12.14-10.82l.08-7.49Z"/><path class="cls-39" d="M114,43.22l-.08,7.49c-.06,6.23,5.73,11,12.55,11.07h.27c6.82.07,12.11-4.58,12.18-10.82l.07-7.49Z"/><path class="cls-40" d="M139,43.47,138.89,51C138.82,57.2,144.27,62,151,62h.26c6.71.07,12.22-4.58,12.28-10.82l.08-7.49Z"/><path class="cls-41" d="M163.6,43.72l-.08,7.49c-.06,6.24,5.59,11,12.42,11.07h.26c6.82.07,11.89-4.58,12-10.82l.07-7.49Z"/><path class="cls-42" d="M188.23,44l-.07,7.49c-.07,6.24,5.61,11,12.31,11.07h.26c6.71.07,12.36-4.58,12.42-10.82l.08-7.48Z"/><path class="cls-43" d="M213.23,44.23l-.08,7.48c-.06,6.24,5.46,11,12.28,11.07h.26c6.83.07,12.4-4.58,12.46-10.81l.07-7.49Z"/><path class="cls-44" d="M238.22,44.48,238.15,52C238.09,58.2,243.26,63,250,63h.26c6.7.07,12.13-4.58,12.19-10.82l.08-7.49Z"/></g></g></svg>